<?xml version="1.0" encoding="UTF-8"?><svg id="Layer_2" xmlns="http://www.w3.org/2000/svg" viewBox="0 0 38.25 17.94"><defs><style>.cls-1{fill:#fff;}</style></defs><g id="Layer_1-2"><path class="cls-1" d="M9.92,1.86c-1.84.41-3.19.91-4.75,2.43-1.56,1.52-2.44,3.83-2.44,5.8,0,4.85,3.69,7.14,3.69,7.14.04.03.05.1.02.14-.03.04-.09.05-.13.02,0,0-4.12-2.18-4.12-7.31,0-2.51,1.1-4.59,2.54-6.04,2.01-2.01,4.56-2.4,5.18-2.4.05,0,.11.05.11.11,0,.05-.04.1-.09.11ZM3.32,4.51c-.06-.05-.15-.04-.2.02-.47.58-2.08,2.52-2.08,5.69,0,3.88,2.5,6.14,2.58,6.22.05.05.14.06.19,0,.06-.05.07-.15.02-.2-.34-.32-2.33-2.65-2.33-5.98s1.59-5.14,1.85-5.56c.04-.07.03-.14-.02-.19ZM.42,8.9c0-.06-.05-.13-.13-.13-.06,0-.11.04-.12.1,0,0-.17.71-.17,1.65,0,2.62,1.2,4.31,1.3,4.48.03.05.1.07.16.04.06-.03.08-.11.06-.16-.03-.07-1.16-2.11-1.16-4.76,0-.72.07-1.15.07-1.22ZM19.05,6.52h.37c-.03-.06-.09-.21-.12-.26-.04-.09-.11-.24-.11-.31,0-.1.44-.56.44-1.56,0-.38-.1-.71-.12-.76-.01-.04-.05-.08-.1-.08-.06,0-.1.05-.1.1,0,.03.04.22.04.44,0,.49-.13.88-.26,1.13-.24.45-.4.48-.4.64,0,.04,0,.08.03.12s.17.29.31.54ZM19.23,13.8c-.73,1.56-1.74,2.49-2.12,2.82-.04.03-.04.09-.01.13.03.04.09.05.13.01.4-.33,1.52-1.26,2.34-2.97h-.34Z"/><path class="cls-1" d="M10.44,12.87v.75c-.74.04-2.53.19-2.94.24v-.76s.7-.27.7-.27v-5.36s-.5-.03-.5-.03l-.52,1.3h-.78s0-2.39,0-2.39c1.93.21,3.16.3,4.92.41v2.27s-.76,0-.76,0l-.54-1.46-.34-.04v5.16s.77.19.77.19ZM25.31,12.46c.86,0,.85-.58.85-2.27,0-1.75-.02-2.32-.88-2.32-.86,0-.85.57-.85,2.26,0,1.74.02,2.33.88,2.33M27.64,10.13c0,2.15-.07,3.34-2.33,3.22-2.15-.12-2.33-.95-2.33-3.16,0-2.16.18-3.2,2.33-3.21,2.06,0,2.34.59,2.33,3.15M16.83,11.57v-3.6s.73-.16.73-.16v-.8c-.18,0-2.42-.07-2.69-.09v.73s.58.23.58.23v3.7c0,.67-.28.92-.85.92-.57,0-.87-.25-.88-.9v-3.73s.57-.24.57-.24v-.72c-.55-.03-1.75-.08-2.55-.13v.72s.58.27.58.27v3.92c0,1.28.72,1.77,2.27,1.76,1.55,0,2.24-.61,2.24-1.88M20.09,12.44c.69,0,1.13-.14,1.14-.89,0-.75-.32-.97-1.01-.97h-.43s-.02,1.86-.02,1.86h.33M19.8,9.63h.41c.55,0,.87-.13.88-.81,0-.74-.26-.88-.76-.92l-.51-.03-.02,1.75ZM21.33,9.95s1.36.22,1.35,1.56c-.01,1.24-.67,1.78-2.47,1.76,0,0-1.43-.01-2.35,0v-.66s.58-.21.58-.21l.06-4.45-.54-.18v-.76s2.49.07,2.49.07c1.24.01,2.05.34,2.04,1.61-.01,1.21-1.15,1.26-1.15,1.26M30.22,9.85c.72,0,1-.31,1-1.15,0-.74-.36-.89-.82-.87-.19,0-.5.04-.59.05v1.98s.41,0,.41,0M38.09,13.76s-.82.15-2.25.07c-2.3-.14-2.5-1.24-2.51-3.65,0-2.54.35-3.56,2.24-3.69.76-.05,1.22.22,1.22.22l.11-.26,1-.11v2.59s-.97.02-.97.02l-.49-1.34s-.14-.11-.64-.08c-.93.05-.93.72-.92,2.55,0,1.98.08,2.67,1.01,2.71.48.02.66-.1.66-.1v-1.67s-.69-.26-.69-.26v-.79s2.22,0,2.22,0v3.78ZM33.32,12.76v.82c-.55-.03-1.4-.08-1.77-.1l-1.14-2.61h-.61s0,1.59,0,1.59l.6.24v.73c-.58-.03-1.69-.07-2.65-.09v-.73s.63-.21.63-.21v-4.41s-.6-.28-.6-.28v-.75s2.87-.1,2.87-.1c1.1-.04,2.1.29,2.1,1.75,0,1.59-.99,1.84-.99,1.84l.93,2.06.62.24Z"/><path class="cls-1" d="M17.62,13.8c-1.33,2.33-3.77,3.66-6.3,3.66-3.55,0-7.26-2.82-7.26-7.31,0-3.9,3.24-7.24,7.27-7.24.25,0,.93.06.93.06-.03-.26-.07-.53-.07-.8,0-1.14.82-1.68,1.86-1.68.82,0,1.55.36,1.81.48,1.84.86,2.24,2.06,2.24,2.59,0,1.1-.9,1.42-1.45,1.72,0,0,0,0,0,0,.06.06.45.4.94,1.25h.56c-.33-.62-.72-1.12-.73-1.12.64-.31,1.16-.98,1.16-1.81,0-.76-.52-2.13-2.51-3.06-.31-.14-1.09-.53-2.02-.53-1.35,0-2.35.79-2.35,2.17,0,.13.01.26.01.26-.13,0-.26,0-.38,0-4.78,0-7.76,4.06-7.76,7.69,0,4.22,3.33,7.83,7.75,7.83,2.89,0,5.52-1.59,6.86-4.15h-.56Z"/><path class="cls-1" d="M20.59.91h.22l.38,1.1.39-1.1h.23l.23,1.45h-.22l-.16-1.14-.42,1.14h-.09l-.42-1.14-.16,1.14h-.21l.23-1.45Z"/><path class="cls-1" d="M22.32.91h.41c.3,0,.46.13.46.36,0,.18-.1.27-.2.31h0c.16.05.3.14.3.37,0,.27-.22.42-.54.42h-.43V.91ZM22.68,1.53c.23,0,.31-.1.31-.23,0-.15-.12-.22-.29-.22h-.16v.45h.15ZM22.73,2.19c.2,0,.34-.07.34-.26,0-.17-.12-.25-.37-.25h-.18v.5h.2Z"/><path class="cls-1" d="M23.54.91h.79v.18h-.57v.44h.57l-.09.17h-.48v.48h.57v.18h-.79V.91ZM23.62.64c0-.07.06-.13.13-.13.07,0,.13.06.13.13s-.06.13-.13.13c-.08,0-.13-.06-.13-.13ZM24.01.64c0-.07.06-.13.13-.13s.13.06.13.13-.06.13-.13.13-.13-.06-.13-.13Z"/><path class="cls-1" d="M24.48,2.07l.16-.13c.08.17.22.26.38.26.15,0,.25-.09.25-.23,0-.35-.74-.21-.74-.68,0-.23.2-.39.45-.39.21,0,.36.11.44.23l-.15.12c-.06-.1-.16-.17-.29-.17-.11,0-.23.07-.23.2,0,.33.74.19.74.69,0,.26-.22.42-.47.42s-.44-.13-.54-.31Z"/><path class="cls-1" d="M25.75.91h.21v.61h.69v-.61h.21v1.45h-.21v-.67h-.69v.67h-.21V.91Z"/><path class="cls-1" d="M27.51,1.09h-.43v-.18h1.13l-.09.18h-.39v1.28h-.21v-1.28Z"/><path class="cls-1" d="M28.36.91h.79v.18h-.57v.44h.57l-.09.17h-.48v.48h.57v.18h-.79V.91Z"/><path class="cls-1" d="M29.71,1.09h-.43v-.18h1.13l-.09.18h-.39v1.28h-.21v-1.28Z"/><path class="cls-1" d="M30.56,1.78v-.87h.21v.88c0,.26.16.41.37.41s.37-.14.37-.41v-.88h.21v.87c0,.39-.25.6-.58.6s-.58-.22-.58-.6Z"/><path class="cls-1" d="M32.08.91h.43c.36,0,.52.19.52.43,0,.22-.14.36-.33.41l.41.61h-.25l-.36-.57h-.21v.57h-.21V.91ZM32.49,1.62c.22,0,.33-.1.33-.27,0-.16-.11-.26-.32-.26h-.2v.53h.19Z"/><path class="cls-1" d="M33.81.91h.16l.8,1.09V.91h.2v1.45h-.16l-.8-1.1v1.1h-.19V.91Z"/><path class="cls-1" d="M35.27,1.64c0-.44.34-.75.75-.75.22,0,.39.08.51.19l-.14.15c-.09-.09-.22-.16-.37-.16-.3,0-.53.23-.53.56s.23.56.54.56c.28,0,.5-.2.53-.49h-.55l.09-.17h.67s0,.06,0,.09c0,.44-.33.76-.74.76s-.75-.3-.75-.75Z"/><path class="cls-1" d="M37.86,2.03h-.69l-.15.34h-.22l.66-1.45h.22l-.06.13.61,1.33h-.23l-.14-.34ZM37.78,1.86l-.27-.63-.27.63h.54Z"/></g></svg>