<?xml version="1.0" encoding="UTF-8"?>
<svg id="Layer_2" xmlns="http://www.w3.org/2000/svg" viewBox="0 0 48.94 22.96">
  <defs>
    <style>
      .cls-1, .cls-2 {
        fill: #fff;
      }

      .cls-3 {
        letter-spacing: -.04em;
      }

      .cls-4 {
        letter-spacing: 0em;
      }

      .cls-2 {
        font-family: TuborgGrotesque-Regular, 'Tuborg Grotesque';
        font-size: 2.65px;
      }
    </style>
  </defs>
  <g id="Layer_1-2" data-name="Layer_1">
    <g>
      <g>
        <g>
          <path class="cls-1" d="M12.7,2.39c-2.35.52-4.08,1.16-6.08,3.11s-3.13,4.91-3.13,7.43c0,6.21,4.72,9.14,4.72,9.14.06.04.07.12.03.18-.04.05-.12.07-.17.03,0,0-5.27-2.79-5.27-9.36,0-3.21,1.4-5.88,3.25-7.73,2.58-2.58,5.83-3.07,6.62-3.07.07,0,.13.06.13.14,0,.07-.05.12-.11.14ZM4.25,5.77c-.08-.06-.19-.05-.25.02-.61.74-2.67,3.22-2.67,7.28,0,4.96,3.19,7.86,3.3,7.96.07.07.17.07.25.01.08-.06.09-.19.02-.25-.43-.41-2.98-3.39-2.98-7.66s2.04-6.58,2.36-7.12c.05-.08.04-.18-.03-.24ZM.54,11.39c0-.08-.06-.16-.16-.16-.08,0-.14.05-.16.13,0,0-.22.9-.22,2.11,0,3.35,1.53,5.51,1.67,5.73.04.07.13.09.2.06.08-.04.11-.14.07-.21-.04-.09-1.49-2.7-1.49-6.09,0-.92.09-1.47.09-1.57ZM24.37,8.35h.48c-.04-.08-.12-.27-.15-.34-.05-.11-.13-.31-.13-.4,0-.13.57-.72.57-2,0-.48-.13-.91-.15-.97-.02-.06-.07-.1-.13-.1-.08,0-.13.07-.13.13,0,.04.05.28.05.56,0,.63-.17,1.13-.33,1.44-.31.58-.51.61-.51.82,0,.06.01.1.04.15s.22.37.39.69ZM24.6,17.65c-.94,2-2.23,3.18-2.72,3.61-.05.04-.06.12-.01.17.04.05.12.06.17.02.51-.42,1.95-1.62,3-3.8h-.44Z"/>
          <path class="cls-1" d="M13.36,16.47v.96c-.95.05-3.24.24-3.76.3v-.97s.9-.35.9-.35v-6.86s-.65-.03-.65-.03l-.67,1.67h-.99s0-3.06,0-3.06c2.46.27,4.04.38,6.29.53v2.9s-.97,0-.97,0l-.69-1.87-.44-.05v6.6s.98.24.98.24ZM32.39,15.94c1.09,0,1.09-.75,1.08-2.91,0-2.24-.02-2.97-1.13-2.97-1.09,0-1.09.73-1.08,2.89,0,2.23.02,2.98,1.13,2.98M35.37,12.96c0,2.75-.09,4.28-2.98,4.12-2.75-.15-2.98-1.22-2.99-4.04-.01-2.77.23-4.09,2.98-4.1,2.64,0,2.99.75,2.99,4.03M21.54,14.8v-4.61s.94-.21.94-.21v-1.03c-.23,0-3.09-.09-3.44-.11v.93s.74.3.74.3v4.73c0,.86-.36,1.18-1.09,1.18-.73,0-1.12-.33-1.12-1.16v-4.78s.73-.3.73-.3v-.93c-.7-.03-2.24-.1-3.27-.16v.93s.75.35.75.35v5.02c0,1.63.92,2.26,2.9,2.26,1.99,0,2.87-.78,2.86-2.41M25.71,15.91c.88,0,1.44-.18,1.45-1.13,0-.96-.41-1.24-1.29-1.24h-.55s-.03,2.38-.03,2.38h.42M25.34,12.33h.53c.71.01,1.12-.16,1.13-1.04,0-.94-.34-1.13-.97-1.17l-.65-.03-.03,2.24ZM27.29,12.73s1.74.28,1.72,2c-.01,1.58-.85,2.28-3.16,2.26,0,0-1.83-.02-3.01,0v-.85s.74-.27.74-.27l.07-5.7-.69-.23v-.97s3.19.09,3.19.09c1.59.01,2.62.44,2.61,2.06-.01,1.55-1.47,1.61-1.47,1.61M38.67,12.61c.92,0,1.28-.39,1.28-1.47,0-.95-.46-1.14-1.05-1.12-.25,0-.64.05-.75.06v2.53s.53,0,.53,0M48.75,17.61s-1.06.2-2.87.09c-2.94-.18-3.2-1.58-3.21-4.67-.01-3.25.44-4.55,2.87-4.72.98-.07,1.56.29,1.56.29l.14-.34,1.28-.14v3.32s-1.24.03-1.24.03l-.63-1.71s-.18-.14-.83-.11c-1.19.06-1.19.92-1.18,3.26,0,2.53.1,3.41,1.3,3.46.61.02.85-.12.85-.12v-2.13s-.88-.34-.88-.34v-1.01s2.84,0,2.84,0v4.84ZM42.64,16.33v1.05c-.7-.04-1.79-.11-2.27-.13l-1.46-3.33h-.77s0,2.03,0,2.03l.77.3v.93c-.75-.03-2.16-.09-3.39-.12v-.93s.8-.27.8-.27v-5.64s-.77-.36-.77-.36v-.95s3.67-.13,3.67-.13c1.41-.05,2.69.37,2.69,2.24,0,2.03-1.27,2.36-1.27,2.36l1.19,2.64.8.3Z"/>
        </g>
        <path class="cls-1" d="M22.55,17.65c-1.7,2.98-4.83,4.68-8.07,4.68-4.54,0-9.29-3.6-9.29-9.35,0-4.99,4.15-9.26,9.3-9.26.32,0,1.19.08,1.19.08-.04-.34-.09-.68-.09-1.02,0-1.46,1.05-2.15,2.38-2.15,1.05,0,1.98.46,2.31.62,2.35,1.1,2.86,2.64,2.86,3.31,0,1.41-1.15,1.81-1.86,2.2,0,0,0,0,0,0,.08.08.58.52,1.2,1.6h.72c-.42-.79-.92-1.43-.93-1.43.82-.4,1.49-1.25,1.49-2.32,0-.97-.67-2.72-3.21-3.91-.39-.18-1.4-.68-2.59-.68-1.72,0-3,1.02-3,2.77,0,.17.01.33.01.33-.16,0-.33-.01-.49-.01-6.12,0-9.93,5.19-9.93,9.84,0,5.4,4.26,10.02,9.91,10.02,3.7,0,7.07-2.03,8.78-5.31h-.72Z"/>
      </g>
      <text class="cls-2" transform="translate(25.92 3.02)"><tspan class="cls-4" x="0" y="0">MBËSHTETUR N</tspan><tspan class="cls-3" x="19.04" y="0">G</tspan><tspan class="cls-4" x="21.15" y="0">A</tspan></text>
    </g>
  </g>
</svg>